<mxfile>
    <diagram id="z9dfUBOIKKzsB9hfZkut" name="ページ1">
        <mxGraphModel dx="898" dy="635" grid="1" gridSize="10" guides="1" tooltips="1" connect="1" arrows="1" fold="1" page="1" pageScale="1" pageWidth="827" pageHeight="1169" math="0" shadow="0">
            <root>
                <mxCell id="0"/>
                <mxCell id="1" parent="0"/>
                <mxCell id="2" value="" style="rounded=0;whiteSpace=wrap;html=1;" vertex="1" parent="1">
                    <mxGeometry x="20" y="70" width="680" height="470" as="geometry"/>
                </mxCell>
                <mxCell id="3" value="" style="rounded=0;whiteSpace=wrap;html=1;" vertex="1" parent="1">
                    <mxGeometry x="20" y="70" width="680" height="60" as="geometry"/>
                </mxCell>
                <mxCell id="4" value="足し算" style="text;html=1;strokeColor=none;fillColor=none;align=center;verticalAlign=middle;whiteSpace=wrap;rounded=0;" vertex="1" parent="1">
                    <mxGeometry x="340" y="90" width="40" height="20" as="geometry"/>
                </mxCell>
                <mxCell id="5" value="1" style="text;html=1;strokeColor=none;fillColor=none;align=center;verticalAlign=middle;whiteSpace=wrap;rounded=0;fontSize=50;fontColor=#000000;" vertex="1" parent="1">
                    <mxGeometry x="210" y="210" width="70" height="60" as="geometry"/>
                </mxCell>
                <mxCell id="6" value="＋" style="text;html=1;strokeColor=none;fillColor=none;align=center;verticalAlign=middle;whiteSpace=wrap;rounded=0;fontSize=50;fontColor=#000000;" vertex="1" parent="1">
                    <mxGeometry x="325" y="210" width="70" height="60" as="geometry"/>
                </mxCell>
                <mxCell id="7" value="2" style="text;html=1;strokeColor=none;fillColor=none;align=center;verticalAlign=middle;whiteSpace=wrap;rounded=0;fontSize=50;fontColor=#000000;" vertex="1" parent="1">
                    <mxGeometry x="440" y="210" width="70" height="60" as="geometry"/>
                </mxCell>
                <mxCell id="9" value="こたえ" style="text;html=1;strokeColor=none;fillColor=none;align=center;verticalAlign=middle;whiteSpace=wrap;rounded=0;fontSize=50;fontColor=#9F9CF0;" vertex="1" parent="1">
                    <mxGeometry x="275" y="290" width="170" height="60" as="geometry"/>
                </mxCell>
                <mxCell id="10" value="3" style="text;html=1;strokeColor=none;fillColor=none;align=center;verticalAlign=middle;whiteSpace=wrap;rounded=0;fontSize=50;fontColor=#9F9CF0;" vertex="1" parent="1">
                    <mxGeometry x="325" y="360" width="70" height="60" as="geometry"/>
                </mxCell>
                <mxCell id="12" value="つぎへ" style="text;html=1;strokeColor=none;fillColor=none;align=center;verticalAlign=middle;whiteSpace=wrap;rounded=0;fontSize=50;fontColor=#F07F7F;" vertex="1" parent="1">
                    <mxGeometry x="282.5" y="440" width="155" height="60" as="geometry"/>
                </mxCell>
            </root>
        </mxGraphModel>
    </diagram>
</mxfile>